<svg version="1.2" xmlns="http://www.w3.org/2000/svg" viewBox="0 0 32 32" width="32" height="32">
	<title>spotify-svg</title>
	<style>
		.s0 { fill: #000000 } 
	</style>
	<path id="Layer" fill-rule="evenodd" class="s0" d="m28 16c0 6.6-5.4 12-12 12-6.6 0-12-5.4-12-12 0-6.6 5.4-12 12-12 6.6 0 12 5.4 12 12zm-22 0c0 5.6 4.4 10 10 10 5.6 0 10-4.4 10-10 0-5.6-4.4-10-10-10-5.6 0-10 4.4-10 10zm17.5-3.1c0.4 0.1 0.6 0.5 0.6 1-0.1 0.6-0.5 1-1.1 1-0.2 0-0.3-0.1-0.6-0.2-2-1.2-5-1.8-8-1.8-1.5 0-3 0.1-4.4 0.5-0.2 0-0.3 0.1-0.6 0.1-0.6 0.1-1-0.5-1-1.1 0-0.6 0.3-0.9 0.8-1 1.6-0.5 3.3-0.6 5.2-0.6 3.2 0 6.6 0.6 9.1 2.1zm-1.5 3.6c0.3 0.2 0.5 0.5 0.5 0.8 0 0.6-0.3 1-0.8 1-0.3 0-0.5-0.1-0.6-0.2-1.8-1.1-4.2-1.8-7-1.8-1.4 0-2.7 0.2-3.6 0.5-0.3 0-0.3 0-0.5 0-0.5 0-0.8-0.4-0.8-0.8 0-0.5 0.2-0.8 0.6-0.9 1.3-0.4 2.5-0.6 4.3-0.6 2.9 0 5.7 0.6 7.9 2zm-1.2 3.3c0.3 0.2 0.5 0.3 0.5 0.8-0.1 0.3-0.5 0.6-0.8 0.6-0.2 0-0.4-0.1-0.5-0.2-1.6-0.9-3.6-1.4-5.7-1.4-1.2 0-2.4 0.1-3.5 0.4-0.1 0-0.4 0.1-0.5 0.1-0.4 0-0.6-0.4-0.6-0.7 0-0.4 0.2-0.7 0.6-0.8 1.3-0.3 2.7-0.5 4.1-0.5 2.4 0 4.5 0.6 6.4 1.7z"/>
</svg>